<mxfile host="app.diagrams.net" modified="2023-09-30T17:33:24.604Z" agent="Mozilla/5.0 (Windows NT 10.0; Win64; x64) AppleWebKit/537.36 (KHTML, like Gecko) Chrome/117.0.0.0 Safari/537.36" etag="6-Lmib6xiw35JRjFTfKV" version="21.7.5" type="device">
  <diagram name="Page-1" id="5n4Q_kPgomkOV22j6i_L">
    <mxGraphModel dx="1173" dy="627" grid="1" gridSize="10" guides="1" tooltips="1" connect="1" arrows="1" fold="1" page="1" pageScale="1" pageWidth="850" pageHeight="1100" math="0" shadow="0">
      <root>
        <mxCell id="0" />
        <mxCell id="1" parent="0" />
        <mxCell id="ZP-lOoIfoTtW22RDW0wM-82" value="" style="ellipse;shape=doubleEllipse;html=1;dashed=0;whiteSpace=wrap;aspect=fixed;strokeColor=#457B9D;fontColor=#1D3557;fillColor=#A8DADC;labelBackgroundColor=none;" vertex="1" parent="1">
          <mxGeometry x="490" y="10" width="30" height="30" as="geometry" />
        </mxCell>
        <mxCell id="ZP-lOoIfoTtW22RDW0wM-83" value="" style="rounded=1;whiteSpace=wrap;html=1;strokeColor=#457B9D;fontColor=#1D3557;fillColor=#A8DADC;fillStyle=auto;labelBackgroundColor=none;" vertex="1" parent="1">
          <mxGeometry x="440" y="90" width="120" height="60" as="geometry" />
        </mxCell>
      </root>
    </mxGraphModel>
  </diagram>
</mxfile>
